<?xml version="1.0" standalone="no"?>
<!DOCTYPE svg PUBLIC "-//W3C//DTD SVG 1.1//EN" "http://www.w3.org/Graphics/SVG/1.1/DTD/svg11.dtd"><svg t="1616551936519"
  class="icon" viewBox="0 0 1024 1024" version="1.1" xmlns="http://www.w3.org/2000/svg" p-id="3266"
  xmlns:xlink="http://www.w3.org/1999/xlink" width="256" height="256">
  <defs>
    <style type="text/css">
      path {
        fill: #fff;
      }
    </style>
  </defs>
  <path
    d="M826.88 527.36l-217.6-217.6c-16.64-16.64-39.68-25.6-62.72-25.6-24.32 0-46.08 8.96-62.72 25.6L197.12 595.2c-16.64 16.64-25.6 39.68-25.6 64s8.96 46.08 25.6 62.72l217.6 217.6c17.92 17.92 40.96 25.6 62.72 25.6 23.04 0 46.08-8.96 62.72-25.6l285.44-285.44c16.64-16.64 25.6-39.68 25.6-62.72s-7.68-47.36-24.32-64z m-35.84 89.6L505.6 903.68c-15.36 15.36-39.68 15.36-53.76 0l-217.6-217.6c-7.68-7.68-11.52-16.64-11.52-26.88s3.84-20.48 11.52-26.88L518.4 345.6c7.68-7.68 16.64-11.52 26.88-11.52s20.48 3.84 26.88 11.52l217.6 217.6c7.68 7.68 11.52 16.64 11.52 26.88s-3.84 20.48-10.24 26.88z"
    p-id="3267"></path>
  <path
    d="M235.52 325.12c3.84 2.56 8.96 3.84 14.08 3.84 8.96 0 16.64-3.84 21.76-11.52 15.36-24.32 34.56-46.08 55.04-65.28 70.4-64 165.12-92.16 258.56-76.8 53.76 8.96 102.4 30.72 144.64 62.72l-80.64 15.36c-14.08 2.56-23.04 15.36-20.48 29.44 2.56 12.8 12.8 20.48 25.6 20.48h5.12l143.36-26.88c14.08-2.56 23.04-15.36 20.48-29.44L794.88 102.4c-2.56-14.08-15.36-23.04-29.44-20.48-14.08 2.56-23.04 15.36-20.48 29.44l15.36 84.48c-48.64-38.4-106.24-62.72-167.68-72.96-108.8-17.92-218.88 15.36-300.8 89.6-25.6 23.04-46.08 48.64-64 76.8-8.96 11.52-5.12 28.16 7.68 35.84z"
    p-id="3268"></path>
</svg>